# xmcd
#
# Track frame offsets: 
#        150
#        13425
#        33215
#        50785
#        78160
#        96627
#        120270
#        131545
#        155315
#        171425
#        183350
#        200027
#        224690
#        239047
#        256687
#        272240
#        287007
#
# Disc length: 3990 seconds
#
# Revision: 3
# Processed by: cddbd v1.5.2PL0 Copyright (c) Steve Scherf et al.
# Submitted via: ExactAudioCopy v0.99pb4
#
DISCID=010f9411
DTITLE=Ronnie Earl And The Broadcasters - Deep Blues
DYEAR=1988
DGENRE=Bluesrock
TTITLE0=Ronnie Johnnie
TTITLE1=I Smell Trouble
TTITLE2=She Winked Her Eye
TTITLE3=Baby Doll Blues
TTITLE4=Ridin' In the Moonlight
TTITLE5=My Home is a Prison
TTITLE6=Sick and Tired
TTITLE7=I'll Take Care
TTITLE8=San Ho Zay (Smokin')
TTITLE9=You Give Me Nothing But the Blues
TTITLE10=Follow Your Heart
TTITLE11=Why Should I Feel So Bad
TTITLE12=You've Got Me Wrong
TTITLE13=Narcolepsy (Mr. Earl Wakes Up Late)
TTITLE14=Some Day. Some Way
TTITLE15=No More Chances
TTITLE16=Waitin' For My Chance
EXTD=
EXTT0=
EXTT1=
EXTT2=
EXTT3=
EXTT4=
EXTT5=
EXTT6=
EXTT7=
EXTT8=
EXTT9=
EXTT10=
EXTT11=
EXTT12=
EXTT13=
EXTT14=
EXTT15=
EXTT16=
PLAYORDER=
